<?xml version="1.0" encoding="iso-8859-1"?>

<svg version="1.1" id="Layer_1" xmlns="http://www.w3.org/2000/svg" xmlns:xlink="http://www.w3.org/1999/xlink" x="0px" y="0px" width="150" height="auto"
	 viewBox="0 0 63.355 12.25" style="enable-background:new 0 0 63.355 12.25;" xml:space="preserve">
<g>
	<path style="fill-rule:evenodd;clip-rule:evenodd;fill:#F1BB1B;" d="M60.677,9.495h-0.139V9.184h0.177
		c0.091,0,0.189,0.02,0.189,0.15C60.904,9.489,60.796,9.495,60.677,9.495 M61.038,9.341c0-0.188-0.096-0.28-0.3-0.28h-0.332v0.979
		h0.133V9.618h0.142l0.234,0.421h0.144l-0.246-0.433C60.94,9.591,61.038,9.518,61.038,9.341"/>
	<path style="fill-rule:evenodd;clip-rule:evenodd;fill:#F1BB1B;" d="M60.57,10.245c-0.379,0-0.67-0.3-0.67-0.699
		c0-0.391,0.291-0.692,0.67-0.692c0.375,0,0.666,0.3,0.666,0.692C61.236,9.945,60.946,10.245,60.57,10.245 M60.57,8.735
		c-0.444,0-0.818,0.351-0.818,0.811c-0.004,0.449,0.358,0.816,0.807,0.82c0.004,0,0.007,0,0.011,0
		c0.448,0.002,0.812-0.36,0.813-0.808c0-0.004,0-0.008,0-0.012c0.001-0.447-0.36-0.81-0.807-0.811
		C60.575,8.735,60.572,8.735,60.57,8.735"/>
	<path style="fill-rule:evenodd;clip-rule:evenodd;fill:#FFC316;" d="M44.861,6.695c-0.264,0.606-0.53,1.211-0.799,1.814
		c-0.442,0.28-1.448,0.135-1.374-0.755c0.046-0.561,0.877-1.945,2.147-1.29C44.916,6.507,44.892,6.625,44.861,6.695 M38.122,6.695
		c-0.264,0.606-0.53,1.211-0.799,1.814c-0.442,0.28-1.448,0.135-1.375-0.755c0.046-0.561,0.877-1.945,2.147-1.29
		C38.178,6.507,38.153,6.625,38.122,6.695 M49.628,6.785c0.41-0.682,1.743-1.021,2.063-0.26c0.023,0.054,0.04,0.186,0.034,0.268
		c-0.002,0.021-0.004,0.065-0.06,0.065h-2.016C49.649,6.859,49.578,6.863,49.628,6.785 M55.905,7.888
		c0.117-0.311,1.447-3.256,1.447-3.256h2.868c0.087,0,0.161-0.035,0.2-0.122l0.637-1.374H57.92l0.425-1.078h-1.898l-0.412,0.933
		c-0.024,0.054-0.081,0.131-0.251,0.131h-0.993l-0.653,1.511l1.292,0l-1.645,3.809l-3.675,0.004
		C50.03,8.439,49.346,8.491,49.324,7.9h3.398c0.163-0.001,0.304-0.095,0.373-0.232c0.436-0.926,0.32-2.319-0.995-2.762
		c-1.051-0.315-2.599,0-3.531,0.993c-0.569,0.578-1.178,1.615-1.157,2.546h-0.909c-0.376,0-0.473-0.278-0.343-0.558
		c0.129-0.279,2.561-5.827,2.561-5.827H46.84l-1.45,3.16c-1.093-0.848-4.623,0.047-4.679,3.228h-1.007
		c-0.36,0-0.438-0.274-0.319-0.561c0.119-0.287,1.335-3.004,1.335-3.004h-1.928l-0.182,0.382c-1.51-0.993-4.697,0.323-4.764,3.177
		l-5.2-0.001c-0.846-0.006-1.405-0.726-1.07-1.42c1.094-2.265,3.939-3.374,4.945-3.3c0.439,0.032,0.348,0.419,0.037,0.819
		c-0.084,0.107,0.014,0.202,0.088,0.202h1.864c0.766-1.129,0.685-3.053-1.697-2.843c-3.993,0.351-7.343,3.561-7.312,6.047
		c0.014,1.155,1.2,2.323,2.649,2.346h5.994l0.238-0.555c1.137,1.124,2.537,0.521,2.984-0.157c0.199,0.424,0.819,0.711,1.114,0.711
		h2.265l0.326-0.767c0.97,1.287,2.49,0.921,3.075,0.06c0.285,0.476,0.792,0.707,1.033,0.707h2.481l0.294-0.687
		c0.511,0.649,1.15,0.691,1.26,0.686l4.486,0.001l0.254-0.584c0.125,0.23,0.646,0.584,1.236,0.584l3.434,0.001l0.783-1.845h-3.206
		C55.856,8.449,55.789,8.199,55.905,7.888 M22.133,7.222c-0.046,0.557-0.883,1.933-2.163,1.282c-0.083-0.044-0.058-0.161-0.027-0.23
		c0.262-0.599,0.526-1.198,0.791-1.796c0.028-0.017,0.058-0.033,0.09-0.047C21.299,6.212,22.203,6.384,22.133,7.222 M21.4,4.965
		L22.7,2.059h-1.837l-2.861,6.342H16.81c-0.214,0-0.297-0.22-0.193-0.446l1.428-3.111H16.08c0,0-1.586,3.493-1.609,3.557h-0.708
		c-0.231,0-0.359-0.186-0.247-0.449c0.136-0.318,1.419-3.109,1.419-3.109h-1.969l-1.503,3.344c-0.002,0.008-0.048,0.091-0.072,0.213
		l-5.556,0C4.982,8.395,4.419,7.68,4.757,6.99c1.103-2.25,3.97-3.353,4.983-3.279c0.442,0.032,0.35,0.41,0.037,0.813
		C9.693,4.632,9.79,4.725,9.865,4.725h1.879c0.772-1.122,0.691-3.034-1.71-2.825C6.009,2.249,2.634,5.439,2.665,7.909
		c0.014,1.148,1.239,2.332,2.701,2.332h6.009l0.266-0.611c0.181,0.268,0.559,0.612,1.095,0.612h1.695c0,0,0.219-0.462,0.308-0.637
		c0.147,0.208,0.509,0.637,1.099,0.637l3.231,0.001l0.173-0.358c1.132,0.901,3.393,0.669,4.414-1.834
		C24.334,6.389,23.344,4.545,21.4,4.965"/>
</g>
</svg>
