<svg id="logo" data-name="logo" xmlns="http://www.w3.org/2000/svg" viewBox="0 0 46.3 47.4" width="65" height="65"> 
    <style>
      .flag {
        fill: #fff;
      }

      .main-letter {
        fill: #dd3632;
      }

      .flag {
        fill:#fff;
      }

      .flag-black {
        fill: #010101;
      }
    </style>
    <path id="path1085" class="cls-4" d="M14.15,0c-.72,2.03-1.45,4.06-2.18,6.09,.13,.46,.26,.88,.41,1.25,.35,.78,.4,1.2,.39,1.17l.03,.08,.02,.06c.32-.88,.63-1.77,.95-2.65,1.08,.34,2.18,.65,3.32,.8,.9,.14,1.82,.18,2.72,.3,.69-1.81,1.3-3.65,1.99-5.46,2.33,.23,4.68,.38,6.95,.98-.64,1.81-1.31,3.62-1.94,5.44-.96-.18-1.92-.42-2.89-.55-1.36-.17-2.72-.28-4.08-.42-.64,1.82-1.32,3.62-1.93,5.44-1.05-.08-2.1-.19-3.14-.33-.32-.04-.64-.1-.95-.18,.35,1.2,.69,2.42,1,3.68,.23,.8,.29,1.24,.31,1.29l.03,.09,.03,.09c.03,.11,.06,.23,.09,.34,.24-.13,.52-.26,.84-.37,.03-.01,.07-.02,.1-.03,.55-1.52,1.1-3.04,1.65-4.56,2.33,.1,4.66,.39,6.92,.95,.68-1.81,1.32-3.62,1.99-5.43,1.29,.29,2.56,.69,3.76,1.28,.28,.15,.52,.36,.77,.56-.65,1.82-1.3,3.63-1.96,5.44-1.27-1.11-3-1.37-4.56-1.83-.64,1.81-1.29,3.61-1.95,5.4-.35-.09-.71-.17-1.06-.24,.29,.34,.54,.73,.74,1.15,.11-.31,.22-.61,.33-.92,1.57,.43,3.28,.76,4.55,1.84-.63,1.81-1.32,3.61-1.96,5.41-.92-.74-2.04-1.12-3.17-1.43-.08,.12-.15,.23-.23,.33,.78,.23,1.54,.51,2.28,.85-.24,.75-.49,1.49-.78,2.22-.17,.55-.51,1.17-.16,1.72,.65,.72,1.61,1,2.45,1.43,1.36,.59,2.63,1.36,3.82,2.24,1.29,1.22,2.4,2.61,3.65,3.86,.92,.78,1.85,1.58,2.99,2.02,.65,.25,1.27,.57,1.93,.79,.9-2.32,1.65-4.69,2.55-7.01,1.87-5.15,3.75-10.29,5.57-15.46-.83-.33-1.66-.68-2.47-1.05-1.07-.48-1.9-1.34-2.73-2.15-.86-.84-1.54-1.85-2.45-2.64-.59-.49-1.25-.89-1.85-1.36-1.14-1.08-2.66-1.56-4.04-2.25,.04-.26,.04-.54,.17-.78,.4-.77,.58-1.63,.77-2.47,.02-.21,.13-.48-.05-.64-1.03-.89-2.29-1.46-3.61-1.77-1.64-.47-3.31-.89-5.02-.97-2.14-.37-4.32-.45-6.48-.7-.91-.23-1.83-.44-2.71-.76l-.94-.09-.28-.03-.46-.05Zm21.74,10.26c.58,.37,1.17,.74,1.72,1.15,1,.84,1.81,1.87,2.7,2.82-.66,1.8-1.27,3.63-1.96,5.42,.53,.7,1.18,1.28,1.84,1.87,1.06,.9,2.38,1.38,3.66,1.88-.66,1.81-1.28,3.65-1.98,5.45-1.14-.46-2.31-.91-3.32-1.63-.83-.56-1.42-1.39-2.15-2.07,.67-1.8,1.25-3.64,1.98-5.42-.94-1.15-1.94-2.27-3.14-3.17-.41-.3-.86-.54-1.26-.86,.58-1.83,1.3-3.62,1.91-5.44Zm-5.62,3.63c1.24,.56,2.48,1.15,3.69,1.78-.66,1.83-1.33,3.66-2.01,5.48,1.77,.95,3.18,2.44,4.43,3.99-.58,1.81-1.35,3.57-1.9,5.38,.4,.57,.92,1.05,1.42,1.54,1.13,1.06,2.61,1.63,4.03,2.19-.64,1.81-1.3,3.62-1.95,5.43-1.22-.46-2.47-.91-3.49-1.73-.76-.57-1.39-1.3-2.04-1.99,.7-1.79,1.31-3.61,2-5.41-1.03-1.09-1.94-2.29-3.17-3.17-.41-.3-.84-.56-1.27-.83-.66,1.79-1.27,3.61-1.96,5.39-.76-.34-1.47-.78-2.24-1.1-.81-.39-1.73-.68-2.29-1.42,.12-1.19,1.58-1.42,2.02-2.43,.31-.73,.54-1.5,.83-2.24,1.24,.54,2.46,1.13,3.65,1.78,.63-1.8,1.3-3.59,1.94-5.39-1.15-.72-2.42-1.21-3.63-1.8,.65-1.82,1.3-3.64,1.95-5.45Z"/>
    <path id="path1089" class="flag" d="M21.78,1.64c-.69,1.81-1.3,3.65-1.99,5.46-.9-.12-1.82-.17-2.72-.3-1.13-.14-2.23-.46-3.32-.8-.32,.88-.64,1.77-.95,2.65v.03c.33,1.09,.66,2.2,.99,3.33,.31,.08,.63,.14,.95,.18,1.04,.15,2.09,.26,3.14,.33,.61-1.82,1.3-3.62,1.93-5.44,1.36,.14,2.72,.25,4.08,.42,.97,.13,1.93,.37,2.89,.55,.63-1.82,1.3-3.62,1.94-5.44-2.27-.6-4.62-.75-6.95-.98Z"/>
    <path id="path1091" class="flag" d="M26.77,8.07c-.67,1.81-1.31,3.63-1.99,5.43-2.27-.56-4.59-.85-6.92-.95-.55,1.52-1.1,3.04-1.65,4.56,1.02-.33,1.76-.23,2.13-.2h.17l.16,.04c1.25,.22,2.32,.83,3.09,1.74,.36,.07,.71,.15,1.06,.24,.66-1.8,1.32-3.6,1.95-5.4,1.56,.46,3.3,.72,4.56,1.83,.66-1.81,1.31-3.63,1.96-5.44-.25-.2-.49-.41-.77-.56-1.19-.59-2.46-.99-3.76-1.28Z"/>
    <path id="path1093" class="flag" d="M35.89,10.26c.58,.37,1.17,.74,1.72,1.15,1,.84,1.81,1.87,2.7,2.82-.66,1.8-1.27,3.63-1.96,5.42,.53,.7,1.18,1.28,1.84,1.87,1.06,.9,2.38,1.38,3.66,1.88-.66,1.81-1.28,3.65-1.98,5.45-1.14-.46-2.31-.91-3.32-1.63-.83-.56-1.42-1.39-2.15-2.07,.67-1.8,1.25-3.64,1.98-5.42-.94-1.15-1.94-2.27-3.14-3.17-.41-.3-.86-.54-1.26-.86,.58-1.83,1.3-3.62,1.91-5.44h0Z"/>
    <path id="path1095-0" class="flag" d="M30.27,13.89c1.24,.56,2.48,1.15,3.69,1.78-.66,1.83-1.33,3.66-2.01,5.48,1.77,.95,3.18,2.44,4.43,3.99-.58,1.81-1.35,3.57-1.9,5.38,.4,.57,.92,1.05,1.42,1.54,1.13,1.06,2.61,1.63,4.03,2.19-.64,1.81-1.3,3.62-1.95,5.43-1.22-.46-2.47-.91-3.49-1.73-.76-.57-1.39-1.3-2.04-1.99,.7-1.79,1.31-3.61,2-5.41-1.03-1.09-1.94-2.29-3.17-3.17-.41-.3-.84-.56-1.27-.83-.66,1.79-1.27,3.61-1.96,5.39-.76-.34-1.47-.78-2.24-1.1-.81-.39-1.73-.68-2.29-1.42,.12-1.19,1.58-1.42,2.02-2.43,.31-.73,.54-1.5,.83-2.24,1.24,.54,2.46,1.13,3.65,1.78,.63-1.8,1.3-3.59,1.94-5.39-1.15-.72-2.42-1.21-3.63-1.8,.65-1.82,1.3-3.64,1.95-5.45h0Z"/>
    <path id="path1099" class="flag" d="M22.83,18.92c-.11,.31-.22,.61-.33,.92,.11,.22,.2,.45,.28,.7v.03l.02,.03c.33,1.09,.18,1.73,.18,1.76v.17l-.02,.17c-.09,.87-.38,1.54-.71,2.06,1.13,.31,2.25,.68,3.17,1.43,.65-1.81,1.33-3.6,1.96-5.41-1.27-1.08-2.98-1.41-4.55-1.84h0Z"/>
  <path id="path1136" class="main-letter" d="M5.12,.41c-.25,0-.51,.04-.75,.11h0c-.48,.15-.95,.47-1.13,.96-.09,.31-.05,.65,.01,.96,.16,.76,.3,1.53,.45,2.29,.07,.47,.19,.94,.26,1.41,.02,.14,.05,.28,.07,.42,.14,.72,.24,1.45,.38,2.17,.08,.6,.19,1.2,.28,1.81,.09,.7,.21,1.4,.28,2.11,.19,1.42,.3,2.84,.41,4.26,.04,.25,.01,.51,.05,.76,.04,.29,0,.59,.03,.88,.01,.13,.03,.25,.03,.38,0,.91,.03,1.83,0,2.75,0,.3,0,.6,0,.9,0,.27-.06,.54-.04,.82,0,.18,0,.37-.03,.55-.04,.78-.12,1.55-.21,2.32-.03,.45-.1,.9-.17,1.35-.12,.85-.27,1.7-.45,2.54-.11,.41-.16,.84-.26,1.26-.96,4.42-2.61,8.64-4.04,12.92-.05,.17-.13,.34-.19,.5-.06,.16-.05,.34-.1,.5v.16c.06,.19,.04,.4,.14,.58,.34,.85,1.28,1.42,2.19,1.31,.46-.05,.86-.34,1.12-.71,.18-.26,.29-.56,.43-.84,1.17-2.39,2.54-4.68,4-6.91,.58-.87,1.14-1.74,1.76-2.58,.25-.37,.49-.74,.72-1.12,.24-.37,.45-.77,.76-1.09,.1-.11,.26-.2,.41-.14,.18,.12,.27,.34,.33,.54,.17,.54,.24,1.1,.32,1.65,.11,.32,.21,.64,.29,.97,.22,.97,.38,1.95,.56,2.93,.1,.61,.24,1.21,.35,1.82,.12,.45,.2,.91,.33,1.35,.21,.75,.46,1.5,.85,2.18,.24,.41,.54,.81,.97,1.04,.63,.42,1.82,.14,2.18-.4,.5-.76,.39-2.14,.16-3.39-.71-4.22-2.54-8.41-3.03-12.39,0-.31-.08-.61-.02-.92,.01-.38,.09-.75,.19-1.12,.04-.11,.12-.21,.19-.3,1.16-1.53,2.45-2.95,3.75-4.36,.37-.35,.73-.77,.79-1.3,0-.27,.03-.55-.05-.81-.23-.71-.87-1.26-1.6-1.39-.31-.02-.64-.04-.94,.07-.42,.14-.75,.44-1.08,.72-.62,.55-1.19,1.17-1.73,1.79-.24,.23-.42,.5-.67,.71-.15,0-.26-.14-.33-.27-.25-.44-.37-.94-.5-1.43-.09-.4-.17-.81-.26-1.21-.08-.47-.18-.94-.27-1.41-.06-.35-.15-.69-.25-1.03-.18-.51-.25-1.05-.4-1.57-.57-2.33-1.28-4.63-1.96-6.94-.11-.32-.17-.65-.31-.96-.85-2.06-1.12-4.32-2.13-6.31-.24-.45-.51-.89-.85-1.27-.17-.19-.33-.38-.54-.52-.24-.08-.5-.11-.75-.11h0Zm4.35,24h.02c.11,.38,.23,.75,.34,1.12,.1,.51,.22,1.03,.22,1.55,0,.27,.02,.55-.04,.82-.15,1.06-.72,2.02-1.48,2.75,0-.14,.06-.28,.07-.42,.1-.79,.2-1.58,.25-2.37,.05-.55,.1-1.09,.17-1.64,.07-.54,.09-1.08,.28-1.6,.04-.08,.07-.22,.18-.21h0Z"/>
</svg>
